<svg width="640" height="640" xmlns="http://www.w3.org/2000/svg" xmlns:xlink="http://www.w3.org/1999/xlink" preserveAspectRatio="xMidYMid meet">
 <defs>
  <path id="brlwJ1okM" d="m0,327.92c0,141.37 91.68,261.31 218.85,303.63c16,2.94 21.85,-6.95 21.85,-15.43c0,-7.59 -0.28,-27.71 -0.44,-54.42c-89.01,19.34 -107.79,-42.89 -107.79,-42.89c-14.56,-36.97 -35.53,-46.81 -35.53,-46.81c-29.06,-19.86 2.2,-19.45 2.2,-19.45c32.11,2.26 49.01,32.98 49.01,32.98c28.55,48.9 74.9,34.77 93.13,26.59c2.91,-20.68 11.17,-34.78 20.31,-42.78c-71.06,-8.08 -145.76,-35.53 -145.76,-158.16c0,-34.93 12.47,-63.5 32.94,-85.86c-3.29,-8.1 -14.27,-40.64 3.14,-84.69c0,0 26.87,-8.6 88,32.81c25.52,-7.1 52.9,-10.65 80.12,-10.77c27.17,0.12 54.55,3.67 80.11,10.77c61.1,-41.41 87.91,-32.81 87.91,-32.81c17.46,44.06 6.48,76.59 3.19,84.69c20.51,22.36 32.89,50.93 32.89,85.86c0,122.94 -74.82,149.99 -146.11,157.91c11.49,9.88 21.73,29.41 21.73,59.26c0,42.78 -0.39,77.29 -0.39,87.78c0,8.56 5.77,18.52 22,15.39c127.04,-42.41 218.64,-162.27 218.64,-303.6c0,-176.75 -143.29,-320.02 -320.02,-320.02c-176.7,0 -319.98,143.27 -319.98,320.02z"/>
 </defs>
 <g>
  <title>background</title>
  <rect fill="none" id="canvas_background" height="402" width="582" y="-1" x="-1"/>
 </g>
 <g>
  <title>Layer 1</title>
  <g id="svg_1">
   <g id="svg_2">
    <g id="svg_3">
     <use id="svg_4" fill="#d3ae87" xlink:href="#brlwJ1okM"/>
     <g id="svg_5">
      <use fill="#d3ae87" id="svg_6" stroke-opacity="0" stroke="#000000" fill-opacity="0" xlink:href="#brlwJ1okM"/>
     </g>
    </g>
   </g>
  </g>
 </g>
</svg>