<svg width="640" height="640" xmlns="http://www.w3.org/2000/svg" xmlns:xlink="http://www.w3.org/1999/xlink" preserveAspectRatio="xMidYMid meet">
 <defs>
  <path id="i3YCCFtfAM" d="m354.22,269.9c-0.16,0.25 -0.36,0.52 -0.51,0.76c0.04,0 0.2,0 0.51,0c0,-0.46 0,-0.71 0,-0.76z"/>
  <path id="a5pA75N2r4" d="m346.24,1.06l12.91,1.31l12.76,1.82l12.58,2.31l12.41,2.8l12.22,3.27l12.02,3.74l11.82,4.2l11.6,4.64l11.37,5.07l11.13,5.5l10.88,5.91l10.62,6.31l10.35,6.71l10.08,7.09l9.78,7.46l9.48,7.83l9.17,8.18l8.85,8.52l8.52,8.85l8.18,9.17l7.83,9.48l7.46,9.78l7.09,10.08l6.71,10.35l6.31,10.62l5.91,10.88l5.5,11.13l5.07,11.37l4.64,11.6l4.2,11.82l3.74,12.02l3.27,12.22l2.8,12.41l2.31,12.58l1.82,12.76l1.31,12.91l0.79,13.05l0.27,13.19l-0.27,13.19l-0.79,13.05l-1.31,12.91l-1.82,12.76l-2.31,12.58l-2.8,12.41l-3.27,12.22l-3.74,12.02l-4.2,11.82l-4.64,11.6l-5.07,11.37l-5.5,11.13l-5.91,10.88l-6.31,10.62l-6.71,10.35l-7.09,10.08l-7.46,9.78l-7.83,9.48l-8.18,9.17l-8.52,8.85l-8.85,8.52l-9.17,8.18l-9.48,7.83l-9.78,7.46l-10.08,7.09l-10.35,6.71l-10.62,6.31l-10.88,5.91l-11.13,5.5l-11.37,5.07l-11.6,4.64l-11.82,4.2l-12.02,3.74l-12.22,3.27l-12.41,2.8l-12.58,2.31l-12.76,1.82l-12.91,1.31l-13.05,0.79l-13.19,0.27l-13.19,-0.27l-13.05,-0.79l-12.91,-1.31l-12.76,-1.82l-12.58,-2.31l-12.41,-2.8l-12.22,-3.27l-12.02,-3.74l-11.82,-4.2l-11.6,-4.64l-11.37,-5.07l-11.13,-5.5l-10.88,-5.91l-10.62,-6.31l-10.35,-6.71l-10.08,-7.09l-9.78,-7.46l-9.48,-7.83l-9.17,-8.18l-8.85,-8.52l-8.52,-8.85l-8.18,-9.17l-7.83,-9.48l-7.46,-9.78l-7.09,-10.08l-6.71,-10.35l-6.31,-10.62l-5.91,-10.88l-5.5,-11.13l-5.07,-11.37l-4.64,-11.6l-4.2,-11.82l-3.74,-12.02l-3.27,-12.22l-2.8,-12.41l-2.31,-12.58l-1.82,-12.76l-1.31,-12.91l-0.79,-13.05l-0.27,-13.19l0.27,-13.19l0.79,-13.05l1.31,-12.91l1.82,-12.76l2.31,-12.58l2.8,-12.41l3.27,-12.22l3.74,-12.02l4.2,-11.82l4.64,-11.6l5.07,-11.37l5.5,-11.13l5.91,-10.88l6.31,-10.62l6.71,-10.35l7.09,-10.08l7.46,-9.78l7.83,-9.48l8.18,-9.17l8.52,-8.85l8.85,-8.52l9.17,-8.18l9.48,-7.83l9.78,-7.46l10.08,-7.09l10.35,-6.71l10.62,-6.31l10.88,-5.91l11.13,-5.5l11.37,-5.07l11.6,-4.64l11.82,-4.2l12.02,-3.74l12.22,-3.27l12.41,-2.8l12.58,-2.31l12.76,-1.82l12.91,-1.31l13.05,-0.79l13.19,-0.27l13.19,0.27l13.05,0.79zm71.57,230.64l-2.86,0.2l-2.79,0.28l-2.71,0.35l-2.62,0.43l-2.56,0.49l-2.47,0.56l-2.4,0.62l-2.33,0.67l-2.26,0.74l-2.19,0.79l-2.12,0.85l-2.05,0.89l-1.99,0.94l-1.92,0.98l-1.86,1.02l-1.79,1.06l-1.74,1.09l-1.68,1.13l-1.62,1.16l-1.56,1.18l-1.51,1.21l-1.45,1.23l-1.4,1.25l-1.36,1.26l-1.3,1.28l-1.25,1.29l-1.21,1.29l-1.16,1.3l-1.12,1.3l-1.08,1.3l-1.03,1.3l-1,1.29l-0.95,1.29l-0.92,1.27l-0.89,1.26l-0.85,1.24l-0.81,1.22l-0.79,1.19l0,-32.91l-77.21,0l0.08,1.98l0.06,2.65l0.06,3.29l0.05,3.88l0.05,4.44l0.04,4.95l0.03,5.44l0.03,5.89l0.02,6.29l0.02,6.67l0.01,7l0.01,7.29l0,7.55l0,7.77l0,7.96l-0.01,8.1l-0.01,8.22l-0.01,8.28l-0.02,8.32l-0.02,8.31l-0.02,8.27l-0.02,8.2l-0.02,8.08l-0.03,7.92l-0.02,7.74l-0.03,7.5l-0.03,7.24l-0.02,6.94l-0.03,6.6l-0.02,6.22l-0.03,5.81l-0.02,5.35l-0.02,4.87l-0.02,4.34l-0.02,3.77l-0.01,3.17l-0.01,2.53l-0.01,1.85l-0.01,1.14l0,0.39l77.22,0l0,-129.68l0.01,-0.52l0,-0.52l0,-0.52l0.01,-0.52l0.01,-0.52l0.01,-0.52l0.02,-0.51l0.02,-0.52l0.02,-0.51l0.02,-0.51l0.02,-0.51l0.03,-0.51l0.03,-0.5l0.04,-0.51l0.04,-0.5l0.04,-0.49l0.05,-0.5l0.04,-0.49l0.06,-0.49l0.05,-0.48l0.06,-0.48l0.07,-0.48l0.06,-0.47l0.08,-0.47l0.07,-0.46l0.08,-0.46l0.09,-0.46l0.09,-0.45l0.09,-0.44l0.1,-0.44l0.1,-0.43l0.11,-0.43l0.11,-0.42l0.12,-0.42l0.12,-0.41l0.13,-0.4l0.13,-0.4l0.14,-0.39l0.15,-0.38l0.15,-0.38l0.43,-1.04l0.46,-1.04l0.49,-1.05l0.51,-1.03l0.54,-1.04l0.57,-1.03l0.59,-1.02l0.63,-1.02l0.65,-1.01l0.67,-0.99l0.71,-0.98l0.74,-0.97l0.76,-0.96l0.79,-0.94l0.82,-0.92l0.85,-0.9l0.88,-0.88l0.91,-0.86l0.93,-0.84l0.97,-0.81l0.99,-0.78l1.03,-0.76l1.06,-0.73l1.08,-0.7l1.11,-0.67l1.15,-0.63l1.18,-0.6l1.2,-0.57l1.24,-0.52l1.27,-0.49l1.29,-0.45l1.33,-0.41l1.37,-0.36l1.39,-0.32l1.42,-0.28l1.46,-0.22l1.48,-0.18l1.52,-0.13l1.55,-0.08l1.59,-0.03l2.06,0.04l2,0.12l1.94,0.19l1.88,0.28l1.82,0.35l1.76,0.42l1.69,0.5l1.64,0.56l1.58,0.64l1.52,0.71l1.47,0.78l1.4,0.85l1.36,0.92l1.29,0.98l1.24,1.04l1.18,1.11l1.13,1.18l1.08,1.23l1.02,1.29l0.97,1.36l0.91,1.41l0.87,1.47l0.81,1.53l0.76,1.58l0.72,1.64l0.66,1.69l0.61,1.74l0.57,1.79l0.51,1.84l0.47,1.89l0.42,1.94l0.38,1.99l0.33,2.03l0.28,2.08l0.24,2.12l0.19,2.16l0.15,2.2l0.11,2.25l0.06,2.28l0.02,2.32l0,124.24l77.19,0l0,-133.15l-0.07,-5.28l-0.22,-5.14l-0.35,-4.99l-0.48,-4.85l-0.62,-4.71l-0.75,-4.57l-0.88,-4.43l-1,-4.29l-1.13,-4.15l-1.25,-4.02l-1.37,-3.87l-1.48,-3.73l-1.6,-3.6l-1.71,-3.46l-1.82,-3.33l-1.93,-3.19l-2.03,-3.05l-2.14,-2.92l-2.23,-2.78l-2.34,-2.65l-2.42,-2.51l-2.53,-2.39l-2.61,-2.25l-2.7,-2.11l-2.78,-1.99l-2.87,-1.85l-2.95,-1.72l-3.03,-1.59l-3.1,-1.47l-3.18,-1.33l-3.25,-1.2l-3.32,-1.08l-3.39,-0.94l-3.45,-0.82l-3.51,-0.69l-3.57,-0.57l-3.63,-0.44l-3.68,-0.31l-3.74,-0.19l-3.78,-0.06l-3.04,0.04l-2.95,0.13zm-260.68,237.5l77.19,0l0,-232.21l-77.19,0l0,232.21zm35.21,-344.03l-1.9,0.16l-1.85,0.22l-1.82,0.28l-1.78,0.34l-1.75,0.4l-1.7,0.46l-1.66,0.51l-1.62,0.57l-1.58,0.62l-1.54,0.67l-1.49,0.73l-1.45,0.77l-1.41,0.83l-1.35,0.87l-1.32,0.92l-1.26,0.97l-1.22,1.01l-1.17,1.06l-1.11,1.09l-1.07,1.14l-1.02,1.19l-0.97,1.22l-0.91,1.25l-0.86,1.3l-0.8,1.33l-0.75,1.37l-0.7,1.4l-0.64,1.43l-0.58,1.46l-0.52,1.5l-0.47,1.52l-0.4,1.55l-0.35,1.58l-0.28,1.61l-0.22,1.63l-0.16,1.65l-0.1,1.68l-0.03,1.7l0.03,1.66l0.1,1.65l0.15,1.62l0.22,1.61l0.27,1.58l0.34,1.56l0.39,1.54l0.45,1.51l0.51,1.49l0.57,1.46l0.62,1.42l0.67,1.4l0.74,1.37l0.78,1.33l0.84,1.3l0.88,1.26l0.95,1.22l0.99,1.19l1.04,1.15l1.09,1.11l1.14,1.07l1.18,1.02l1.24,0.98l1.28,0.93l1.32,0.89l1.37,0.84l1.42,0.79l1.46,0.73l1.5,0.69l1.54,0.63l1.59,0.58l1.62,0.53l1.67,0.46l1.7,0.41l1.75,0.35l1.78,0.29l1.82,0.23l1.85,0.16l1.89,0.1l1.92,0.03l0.52,0l2,-0.03l1.97,-0.1l1.92,-0.16l1.88,-0.23l1.84,-0.29l1.8,-0.35l1.76,-0.41l1.72,-0.46l1.67,-0.53l1.63,-0.58l1.58,-0.63l1.54,-0.68l1.5,-0.74l1.45,-0.79l1.4,-0.84l1.35,-0.89l1.31,-0.93l1.25,-0.98l1.21,-1.02l1.16,-1.07l1.11,-1.11l1.05,-1.14l1.01,-1.19l0.95,-1.23l0.9,-1.26l0.84,-1.3l0.8,-1.33l0.73,-1.37l0.68,-1.39l0.63,-1.43l0.57,-1.46l0.51,-1.48l0.45,-1.52l0.4,-1.53l0.33,-1.56l0.28,-1.59l0.22,-1.6l0.15,-1.63l0.1,-1.65l0.03,-1.66l-0.07,-1.7l-0.13,-1.68l-0.18,-1.65l-0.24,-1.63l-0.3,-1.61l-0.35,-1.58l-0.42,-1.55l-0.46,-1.52l-0.52,-1.5l-0.58,-1.46l-0.63,-1.44l-0.68,-1.4l-0.73,-1.36l-0.79,-1.33l-0.84,-1.3l-0.89,-1.26l-0.94,-1.22l-0.99,-1.18l-1.04,-1.14l-1.09,-1.1l-1.14,-1.05l-1.18,-1.01l-1.24,-0.97l-1.28,-0.92l-1.33,-0.87l-1.37,-0.83l-1.42,-0.77l-1.46,-0.73l-1.51,-0.67l-1.55,-0.62l-1.6,-0.57l-1.64,-0.51l-1.68,-0.46l-1.72,-0.4l-1.76,-0.34l-1.81,-0.28l-1.84,-0.22l-1.88,-0.16l-1.93,-0.1l-1.96,-0.03l-1.96,0.03l-1.93,0.1z"/>
 </defs>
 <g>
  <title>background</title>
  <rect fill="none" id="canvas_background" height="402" width="582" y="-1" x="-1"/>
 </g>
 <g>
  <title>Layer 1</title>
  <g id="svg_1">
   <g id="svg_2">
    <g id="svg_3">
     <use id="svg_4" fill="#d3ae87" xlink:href="#i3YCCFtfAM"/>
     <g id="svg_5">
      <use fill="#d3ae87" id="svg_6" stroke-opacity="0" stroke="#000000" fill-opacity="0" xlink:href="#i3YCCFtfAM"/>
     </g>
    </g>
    <g id="svg_7">
     <use id="svg_8" fill="#d3ae87" xlink:href="#a5pA75N2r4"/>
     <g id="svg_9">
      <use fill="#d3ae87" id="svg_10" stroke-opacity="0" stroke="#000000" fill-opacity="0" xlink:href="#a5pA75N2r4"/>
     </g>
    </g>
   </g>
  </g>
 </g>
</svg>