<svg width="640" height="640" xmlns="http://www.w3.org/2000/svg" xmlns:xlink="http://www.w3.org/1999/xlink" preserveAspectRatio="xMidYMid meet">
 <defs>
  <path id="i3YCCFtfAM" d="m354.22,269.9c-0.16,0.25 -0.36,0.52 -0.51,0.76c0.04,0 0.2,0 0.51,0c0,-0.46 0,-0.71 0,-0.76z"/>
  <path id="a6S67FRDH" d="m346.24,1.06l12.91,1.31l12.76,1.82l12.58,2.31l12.41,2.8l12.22,3.27l12.02,3.74l11.82,4.2l11.6,4.64l11.37,5.07l11.13,5.5l10.88,5.91l10.62,6.31l10.35,6.71l10.08,7.09l9.78,7.46l9.48,7.83l9.17,8.18l8.85,8.52l8.52,8.85l8.18,9.17l7.83,9.48l7.46,9.78l7.09,10.08l6.71,10.35l6.31,10.62l5.91,10.88l5.5,11.13l5.07,11.37l4.64,11.6l4.2,11.82l3.74,12.02l3.27,12.22l2.8,12.41l2.31,12.58l1.82,12.76l1.31,12.91l0.79,13.05l0.27,13.19l-0.27,13.19l-0.79,13.05l-1.31,12.91l-1.82,12.76l-2.31,12.58l-2.8,12.41l-3.27,12.22l-3.74,12.02l-4.2,11.82l-4.64,11.6l-5.07,11.37l-5.5,11.13l-5.91,10.88l-6.31,10.62l-6.71,10.35l-7.09,10.08l-7.46,9.78l-7.83,9.48l-8.18,9.17l-8.52,8.85l-8.85,8.52l-9.17,8.18l-9.48,7.83l-9.78,7.46l-10.08,7.09l-10.35,6.71l-10.62,6.31l-10.88,5.91l-11.13,5.5l-11.37,5.07l-11.6,4.64l-11.82,4.2l-12.02,3.74l-12.22,3.27l-12.41,2.8l-12.58,2.31l-12.76,1.82l-12.91,1.31l-13.05,0.79l-13.19,0.27l-13.19,-0.27l-13.05,-0.79l-12.91,-1.31l-12.76,-1.82l-12.58,-2.31l-12.41,-2.8l-12.22,-3.27l-12.02,-3.74l-11.82,-4.2l-11.6,-4.64l-11.37,-5.07l-11.13,-5.5l-10.88,-5.91l-10.62,-6.31l-10.35,-6.71l-10.08,-7.09l-9.78,-7.46l-9.48,-7.83l-9.17,-8.18l-8.85,-8.52l-8.52,-8.85l-8.18,-9.17l-7.83,-9.48l-7.46,-9.78l-7.09,-10.08l-6.71,-10.35l-6.31,-10.62l-5.91,-10.88l-5.5,-11.13l-5.07,-11.37l-4.64,-11.6l-4.2,-11.82l-3.74,-12.02l-3.27,-12.22l-2.8,-12.41l-2.31,-12.58l-1.82,-12.76l-1.31,-12.91l-0.79,-13.05l-0.27,-13.19l0.27,-13.19l0.79,-13.05l1.31,-12.91l1.82,-12.76l2.31,-12.58l2.8,-12.41l3.27,-12.22l3.74,-12.02l4.2,-11.82l4.64,-11.6l5.07,-11.37l5.5,-11.13l5.91,-10.88l6.31,-10.62l6.71,-10.35l7.09,-10.08l7.46,-9.78l7.83,-9.48l8.18,-9.17l8.52,-8.85l8.85,-8.52l9.17,-8.18l9.48,-7.83l9.78,-7.46l10.08,-7.09l10.35,-6.71l10.62,-6.31l10.88,-5.91l11.13,-5.5l11.37,-5.07l11.6,-4.64l11.82,-4.2l12.02,-3.74l12.22,-3.27l12.41,-2.8l12.58,-2.31l12.76,-1.82l12.91,-1.31l13.05,-0.79l13.19,-0.27l13.19,0.27l13.05,0.79zm-216.08,454.55l0.02,0l0.03,0.01l0.03,0l0.03,0.01l0.03,0l0.03,0.01l0.03,0l0.03,0.01l0.04,0l0.03,0.01l0.03,0l0.04,0.01l0.03,0.01l0.04,0l0.03,0.01l0.04,0.01l0.04,0.01l0.04,0l0.04,0.01l0.03,0.01l0.04,0.01l0.04,0l0.05,0.01l0.04,0.01l0.04,0.01l0.04,0.01l0.05,0.01l0.04,0.01l0.05,0.01l0.04,0.01l0.05,0.01l0.04,0.01l0.05,0.01l0.05,0.01l0.05,0.01l0.05,0.01l0.05,0.01l0.05,0.02l0.05,0.01l379.64,0l-121.92,-121.92l-44.1,44.1l-0.47,0.46l-0.48,0.45l-0.48,0.43l-0.49,0.43l-0.5,0.42l-0.5,0.4l-0.52,0.4l-0.51,0.38l-0.53,0.38l-0.53,0.36l-0.54,0.35l-0.54,0.34l-0.55,0.33l-0.56,0.32l-0.56,0.31l-0.57,0.29l-0.57,0.29l-0.58,0.27l-0.58,0.26l-0.59,0.25l-0.59,0.24l-0.6,0.22l-0.6,0.22l-0.61,0.2l-0.61,0.19l-0.62,0.18l-0.62,0.17l-0.62,0.16l-0.63,0.14l-0.63,0.13l-0.63,0.12l-0.64,0.11l-0.64,0.09l-0.65,0.08l-0.64,0.07l-0.65,0.06l-0.66,0.05l-0.65,0.03l-0.66,0.02l-0.66,0l-0.66,0l-0.66,-0.02l-0.65,-0.03l-0.65,-0.05l-0.65,-0.06l-0.65,-0.07l-0.64,-0.08l-0.65,-0.09l-0.63,-0.11l-0.64,-0.12l-0.63,-0.13l-0.63,-0.14l-0.62,-0.16l-0.62,-0.16l-0.62,-0.18l-0.61,-0.19l-0.61,-0.21l-0.6,-0.21l-0.6,-0.23l-0.59,-0.24l-0.59,-0.25l-0.58,-0.26l-0.58,-0.27l-0.57,-0.28l-0.57,-0.3l-0.56,-0.31l-0.56,-0.31l-0.55,-0.33l-0.54,-0.34l-0.54,-0.36l-0.53,-0.36l-0.53,-0.37l-0.52,-0.39l-0.51,-0.39l-0.51,-0.41l-0.49,-0.42l-0.49,-0.42l-0.49,-0.44l-0.47,-0.45l-0.47,-0.46l-45.58,-45.58l-123.08,123.09l0.03,0zm393.21,-11.73l0,-243.83l-121.92,121.91l121.92,121.92zm-403.58,-244.77l0,0.01l0,0.01l0,0l0,0.01l0,0.01l0,0.02l0,0.01l-0.01,0.01l0,0.01l0,0.02l-0.01,0.02l0,0l0,0.03l-0.01,0.01l0,0.02l-0.01,0.01l0,0.02l0,0.02l-0.01,0.01l0,0l0,242.55l121.43,-121.43l-121.38,-121.38l0,0l0,0.01zm191.04,166.94l0.46,0.44l0.47,0.42l0.48,0.39l0.5,0.37l0.52,0.35l0.53,0.32l0.54,0.3l0.55,0.28l0.56,0.26l0.57,0.23l0.58,0.22l0.59,0.19l0.59,0.17l0.6,0.14l0.61,0.12l0.61,0.1l0.61,0.08l0.62,0.06l0.61,0.03l0.62,0.01l0.62,-0.01l0.62,-0.03l0.61,-0.06l0.61,-0.08l0.61,-0.1l0.61,-0.12l0.6,-0.14l0.59,-0.17l0.59,-0.19l0.58,-0.21l0.57,-0.24l0.56,-0.26l0.55,-0.27l0.54,-0.31l0.53,-0.32l0.52,-0.35l0.5,-0.36l0.48,-0.39l0.48,-0.42l0.45,-0.43l178.57,-178.57l-0.01,0l-0.01,0l-0.01,0l-0.01,0l-0.01,0l-0.01,0l-0.01,0l-0.02,-0.01l-0.02,0l-0.02,0l-0.01,0l-0.01,-0.01l-0.01,0l-0.01,0l-0.02,0l-0.01,-0.01l-0.02,0l-0.01,0l-0.02,-0.01l-0.03,-0.01l-0.02,0l-0.02,-0.01l-0.03,0l-0.01,-0.01l-0.03,-0.01l-0.01,0l-0.01,0l-379.24,0l178.64,178.63z"/>
 </defs>
 <g>
  <title>background</title>
  <rect fill="none" id="canvas_background" height="402" width="582" y="-1" x="-1"/>
 </g>
 <g>
  <title>Layer 1</title>
  <g id="svg_1">
   <g id="svg_2">
    <g id="svg_3">
     <use id="svg_4" fill="#d3ae87" xlink:href="#i3YCCFtfAM"/>
     <g id="svg_5">
      <use fill="#d3ae87" id="svg_6" stroke-opacity="0" stroke="#000000" fill-opacity="0" xlink:href="#i3YCCFtfAM"/>
     </g>
    </g>
    <g id="svg_7">
     <use id="svg_8" fill="#d3ae87" xlink:href="#a6S67FRDH"/>
     <g id="svg_9">
      <use fill="#d3ae87" id="svg_10" stroke-opacity="0" stroke="#000000" fill-opacity="0" xlink:href="#a6S67FRDH"/>
     </g>
    </g>
   </g>
  </g>
 </g>
</svg>