<svg width="640" height="640" xmlns="http://www.w3.org/2000/svg" xmlns:xlink="http://www.w3.org/1999/xlink" preserveAspectRatio="xMidYMid meet">
 <defs>
  <path id="c24jGwiR" d="m346.24,1.06l12.91,1.31l12.76,1.82l12.58,2.31l12.41,2.8l12.22,3.27l12.02,3.74l11.82,4.2l11.6,4.64l11.37,5.07l11.13,5.5l10.88,5.91l10.62,6.31l10.35,6.71l10.08,7.09l9.78,7.46l9.48,7.83l9.17,8.18l8.85,8.52l8.52,8.85l8.18,9.17l7.83,9.48l7.46,9.78l7.09,10.08l6.71,10.35l6.31,10.62l5.91,10.88l5.5,11.13l5.07,11.37l4.64,11.6l4.2,11.82l3.74,12.02l3.27,12.22l2.8,12.41l2.31,12.58l1.82,12.76l1.31,12.91l0.79,13.05l0.27,13.19l-0.27,13.19l-0.79,13.05l-1.31,12.91l-1.82,12.76l-2.31,12.58l-2.8,12.41l-3.27,12.22l-3.74,12.02l-4.2,11.82l-4.64,11.6l-5.07,11.37l-5.5,11.13l-5.91,10.88l-6.31,10.62l-6.71,10.35l-7.09,10.08l-7.46,9.78l-7.83,9.48l-8.18,9.17l-8.52,8.85l-8.85,8.52l-9.17,8.18l-9.48,7.83l-9.78,7.46l-10.08,7.09l-10.35,6.71l-10.62,6.31l-10.88,5.91l-11.13,5.5l-11.37,5.07l-11.6,4.64l-11.82,4.2l-12.02,3.74l-12.22,3.27l-12.41,2.8l-12.58,2.31l-12.76,1.82l-12.91,1.31l-13.05,0.79l-13.19,0.27l-13.19,-0.27l-13.05,-0.79l-12.91,-1.31l-12.76,-1.82l-12.58,-2.31l-12.41,-2.8l-12.22,-3.27l-12.02,-3.74l-11.82,-4.2l-11.6,-4.64l-11.37,-5.07l-11.13,-5.5l-10.88,-5.91l-10.62,-6.31l-10.35,-6.71l-10.08,-7.09l-9.78,-7.46l-9.48,-7.83l-9.17,-8.18l-8.85,-8.52l-8.52,-8.85l-8.18,-9.17l-7.83,-9.48l-7.46,-9.78l-7.09,-10.08l-6.71,-10.35l-6.31,-10.62l-5.91,-10.88l-5.5,-11.13l-5.07,-11.37l-4.64,-11.6l-4.2,-11.82l-3.74,-12.02l-3.27,-12.22l-2.8,-12.41l-2.31,-12.58l-1.82,-12.76l-1.31,-12.91l-0.79,-13.05l-0.27,-13.19l0.27,-13.19l0.79,-13.05l1.31,-12.91l1.82,-12.76l2.31,-12.58l2.8,-12.41l3.27,-12.22l3.74,-12.02l4.2,-11.82l4.64,-11.6l5.07,-11.37l5.5,-11.13l5.91,-10.88l6.31,-10.62l6.71,-10.35l7.09,-10.08l7.46,-9.78l7.83,-9.48l8.18,-9.17l8.52,-8.85l8.85,-8.52l9.17,-8.18l9.48,-7.83l9.78,-7.46l10.08,-7.09l10.35,-6.71l10.62,-6.31l10.88,-5.91l11.13,-5.5l11.37,-5.07l11.6,-4.64l11.82,-4.2l12.02,-3.74l12.22,-3.27l12.41,-2.8l12.58,-2.31l12.76,-1.82l12.91,-1.31l13.05,-0.79l13.19,-0.27l13.19,0.27l13.05,0.79zm143.47,136.11l-0.53,0.06l-0.54,0.1l-0.53,0.12l-0.53,0.16l-0.54,0.19l-395.56,150.79l-0.58,0.25l-0.56,0.28l-0.52,0.32l-0.5,0.34l-0.46,0.37l-0.44,0.4l-0.4,0.42l-0.38,0.45l-0.35,0.47l-0.31,0.48l-0.29,0.51l-0.26,0.52l-0.23,0.53l-0.2,0.55l-0.17,0.56l-0.14,0.56l-0.11,0.58l-0.08,0.58l-0.05,0.59l-0.03,0.58l0.01,0.59l0.04,0.59l0.06,0.59l0.1,0.58l0.12,0.57l0.16,0.57l0.18,0.56l0.22,0.55l0.24,0.53l0.27,0.52l0.3,0.5l0.34,0.49l0.36,0.47l0.39,0.44l0.42,0.42l0.45,0.4l0.48,0.37l0.51,0.35l0.54,0.31l0.56,0.28l101.33,41.56l37.74,119.01l0.18,0.48l0.2,0.45l0.22,0.44l0.24,0.43l0.25,0.4l0.28,0.39l0.29,0.37l0.31,0.36l0.32,0.34l0.34,0.32l0.35,0.3l0.36,0.28l0.37,0.26l0.39,0.25l0.4,0.23l0.4,0.2l0.42,0.19l0.42,0.17l0.43,0.15l0.43,0.13l0.44,0.1l0.45,0.09l0.45,0.07l0.45,0.04l0.46,0.03l0.45,0l0.46,-0.02l0.46,-0.04l0.45,-0.06l0.46,-0.09l0.45,-0.1l0.45,-0.13l0.44,-0.15l0.44,-0.18l0.43,-0.2l0.43,-0.22l0.42,-0.25l0.41,-0.27l0.4,-0.29l0.39,-0.32l57.96,-53.93l110.18,73.07l0.43,0.26l0.44,0.23l0.44,0.21l0.45,0.18l0.45,0.15l0.46,0.14l0.46,0.11l0.45,0.08l0.46,0.06l0.46,0.04l0.46,0.02l0.46,0l0.45,-0.03l0.46,-0.04l0.44,-0.07l0.45,-0.09l0.44,-0.11l0.43,-0.13l0.43,-0.15l0.41,-0.17l0.41,-0.19l0.41,-0.2l0.39,-0.23l0.38,-0.24l0.37,-0.26l0.36,-0.28l0.34,-0.29l0.34,-0.32l0.31,-0.32l0.31,-0.35l0.28,-0.36l0.27,-0.38l0.26,-0.39l0.23,-0.41l0.22,-0.42l0.2,-0.43l0.17,-0.45l0.16,-0.46l0.14,-0.48l0.11,-0.49l71.65,-336.48l0.09,-0.56l0.07,-0.55l0.03,-0.55l0,-0.54l-0.02,-0.53l-0.06,-0.53l-0.08,-0.51l-0.11,-0.51l-0.14,-0.49l-0.17,-0.49l-0.19,-0.47l-0.21,-0.46l-0.23,-0.44l-0.26,-0.43l-0.28,-0.42l-0.3,-0.4l-0.32,-0.38l-0.34,-0.37l-0.35,-0.35l-0.37,-0.33l-0.39,-0.31l-0.41,-0.29l-0.42,-0.27l-0.43,-0.25l-0.45,-0.23l-0.45,-0.21l-0.47,-0.18l-0.48,-0.15l-0.49,-0.14l-0.49,-0.1l-0.51,-0.08l-0.51,-0.05l-0.52,-0.03l-0.52,0.01l-0.52,0.03z"/>
  <path id="b1eYX9uXz2" d="m248.85,371.71l178.7,-174.68l-215.73,141.67l30.59,94.19l6.44,-61.18z"/>
 </defs>
 <g>
  <title>background</title>
  <rect fill="none" id="canvas_background" height="402" width="582" y="-1" x="-1"/>
 </g>
 <g>
  <title>Layer 1</title>
  <g id="svg_1">
   <g id="svg_2">
    <g id="svg_3">
     <use id="svg_4" fill="#d3ae87" xlink:href="#c24jGwiR"/>
     <g id="svg_5">
      <use fill="#d3ae87" id="svg_6" stroke-opacity="0" stroke="#000000" fill-opacity="0" xlink:href="#c24jGwiR"/>
     </g>
    </g>
    <g id="svg_7">
     <use id="svg_8" fill="#d3ae87" xlink:href="#b1eYX9uXz2"/>
     <g id="svg_9">
      <use fill="#d3ae87" id="svg_10" stroke-opacity="0" stroke="#000000" fill-opacity="0" xlink:href="#b1eYX9uXz2"/>
     </g>
    </g>
   </g>
  </g>
 </g>
</svg>