<?xml version="1.0" encoding="UTF-8" standalone="no"?>
<!DOCTYPE svg PUBLIC "-//W3C//DTD SVG 1.1//EN" "http://www.w3.org/Graphics/SVG/1.1/DTD/svg11.dtd">
<svg version="1.1" xmlns="http://www.w3.org/2000/svg" xmlns:xlink="http://www.w3.org/1999/xlink" preserveAspectRatio="xMidYMid meet" viewBox="0 0 640 640" width="640" height="640"><defs><path d="M0 327.92C0 469.29 91.68 589.23 218.85 631.55C234.85 634.49 240.7 624.6 240.7 616.12C240.7 608.53 240.42 588.41 240.26 561.7C151.25 581.04 132.47 518.81 132.47 518.81C117.91 481.84 96.94 472 96.94 472C67.88 452.14 99.14 452.55 99.14 452.55C131.25 454.81 148.15 485.53 148.15 485.53C176.7 534.43 223.05 520.3 241.28 512.12C244.19 491.44 252.45 477.34 261.59 469.34C190.53 461.26 115.83 433.81 115.83 311.18C115.83 276.25 128.3 247.68 148.77 225.32C145.48 217.22 134.5 184.68 151.91 140.63C151.91 140.63 178.78 132.03 239.91 173.44C265.43 166.34 292.81 162.79 320.03 162.67C347.2 162.79 374.58 166.34 400.14 173.44C461.24 132.03 488.05 140.63 488.05 140.63C505.51 184.69 494.53 217.22 491.24 225.32C511.75 247.68 524.13 276.25 524.13 311.18C524.13 434.12 449.31 461.17 378.02 469.09C389.51 478.97 399.75 498.5 399.75 528.35C399.75 571.13 399.36 605.64 399.36 616.13C399.36 624.69 405.13 634.65 421.36 631.52C548.4 589.11 640 469.25 640 327.92C640 151.17 496.71 7.9 319.98 7.9C143.28 7.9 0 151.17 0 327.92Z" id="brlwJ1okM"></path></defs><g><g><g><use xlink:href="#brlwJ1okM" opacity="1" fill="#ffffff" fill-opacity="1"></use><g><use xlink:href="#brlwJ1okM" opacity="1" fill-opacity="0" stroke="#000000" stroke-width="1" stroke-opacity="0"></use></g></g></g></g></svg>