<?xml version="1.0" encoding="UTF-8" standalone="no"?>
<!DOCTYPE svg PUBLIC "-//W3C//DTD SVG 1.1//EN" "http://www.w3.org/Graphics/SVG/1.1/DTD/svg11.dtd">
<svg version="1.1" xmlns="http://www.w3.org/2000/svg" xmlns:xlink="http://www.w3.org/1999/xlink" preserveAspectRatio="xMidYMid meet" viewBox="0 0 640 640" width="640" height="640"><defs><path d="M354.22 269.9C354.06 270.15 353.86 270.42 353.71 270.66C353.75 270.66 353.91 270.66 354.22 270.66C354.22 270.2 354.22 269.95 354.22 269.9Z" id="i3YCCFtfAM"></path><path d="M346.24 1.06L359.15 2.37L371.91 4.19L384.49 6.5L396.9 9.3L409.12 12.57L421.14 16.31L432.96 20.51L444.56 25.15L455.93 30.22L467.06 35.72L477.94 41.63L488.56 47.94L498.91 54.65L508.99 61.74L518.77 69.2L528.25 77.03L537.42 85.21L546.27 93.73L554.79 102.58L562.97 111.75L570.8 121.23L578.26 131.01L585.35 141.09L592.06 151.44L598.37 162.06L604.28 172.94L609.78 184.07L614.85 195.44L619.49 207.04L623.69 218.86L627.43 230.88L630.7 243.1L633.5 255.51L635.81 268.09L637.63 280.85L638.94 293.76L639.73 306.81L640 320L639.73 333.19L638.94 346.24L637.63 359.15L635.81 371.91L633.5 384.49L630.7 396.9L627.43 409.12L623.69 421.14L619.49 432.96L614.85 444.56L609.78 455.93L604.28 467.06L598.37 477.94L592.06 488.56L585.35 498.91L578.26 508.99L570.8 518.77L562.97 528.25L554.79 537.42L546.27 546.27L537.42 554.79L528.25 562.97L518.77 570.8L508.99 578.26L498.91 585.35L488.56 592.06L477.94 598.37L467.06 604.28L455.93 609.78L444.56 614.85L432.96 619.49L421.14 623.69L409.12 627.43L396.9 630.7L384.49 633.5L371.91 635.81L359.15 637.63L346.24 638.94L333.19 639.73L320 640L306.81 639.73L293.76 638.94L280.85 637.63L268.09 635.81L255.51 633.5L243.1 630.7L230.88 627.43L218.86 623.69L207.04 619.49L195.44 614.85L184.07 609.78L172.94 604.28L162.06 598.37L151.44 592.06L141.09 585.35L131.01 578.26L121.23 570.8L111.75 562.97L102.58 554.79L93.73 546.27L85.21 537.42L77.03 528.25L69.2 518.77L61.74 508.99L54.65 498.91L47.94 488.56L41.63 477.94L35.72 467.06L30.22 455.93L25.15 444.56L20.51 432.96L16.31 421.14L12.57 409.12L9.3 396.9L6.5 384.49L4.19 371.91L2.37 359.15L1.06 346.24L0.27 333.19L0 320L0.27 306.81L1.06 293.76L2.37 280.85L4.19 268.09L6.5 255.51L9.3 243.1L12.57 230.88L16.31 218.86L20.51 207.04L25.15 195.44L30.22 184.07L35.72 172.94L41.63 162.06L47.94 151.44L54.65 141.09L61.74 131.01L69.2 121.23L77.03 111.75L85.21 102.58L93.73 93.73L102.58 85.21L111.75 77.03L121.23 69.2L131.01 61.74L141.09 54.65L151.44 47.94L162.06 41.63L172.94 35.72L184.07 30.22L195.44 25.15L207.04 20.51L218.86 16.31L230.88 12.57L243.1 9.3L255.51 6.5L268.09 4.19L280.85 2.37L293.76 1.06L306.81 0.27L320 0L333.19 0.27L346.24 1.06ZM417.81 231.7L414.95 231.9L412.16 232.18L409.45 232.53L406.83 232.96L404.27 233.45L401.8 234.01L399.4 234.63L397.07 235.3L394.81 236.04L392.62 236.83L390.5 237.68L388.45 238.57L386.46 239.51L384.54 240.49L382.68 241.51L380.89 242.57L379.15 243.66L377.47 244.79L375.85 245.95L374.29 247.13L372.78 248.34L371.33 249.57L369.93 250.82L368.57 252.08L367.27 253.36L366.02 254.65L364.81 255.94L363.65 257.24L362.53 258.54L361.45 259.84L360.42 261.14L359.42 262.43L358.47 263.72L357.55 264.99L356.66 266.25L355.81 267.49L355 268.71L354.21 269.9L354.21 236.99L277 236.99L277.08 238.97L277.14 241.62L277.2 244.91L277.25 248.79L277.3 253.23L277.34 258.18L277.37 263.62L277.4 269.51L277.42 275.8L277.44 282.47L277.45 289.47L277.46 296.76L277.46 304.31L277.46 312.08L277.46 320.04L277.45 328.14L277.44 336.36L277.43 344.64L277.41 352.96L277.39 361.27L277.37 369.54L277.35 377.74L277.33 385.82L277.3 393.74L277.28 401.48L277.25 408.98L277.22 416.22L277.2 423.16L277.17 429.76L277.15 435.98L277.12 441.79L277.1 447.14L277.08 452.01L277.06 456.35L277.04 460.12L277.03 463.29L277.02 465.82L277.01 467.67L277 468.81L277 469.2L354.22 469.2L354.22 339.52L354.23 339L354.23 338.48L354.23 337.96L354.24 337.44L354.25 336.92L354.26 336.4L354.28 335.89L354.3 335.37L354.32 334.86L354.34 334.35L354.36 333.84L354.39 333.33L354.42 332.83L354.46 332.32L354.5 331.82L354.54 331.33L354.59 330.83L354.63 330.34L354.69 329.85L354.74 329.37L354.8 328.89L354.87 328.41L354.93 327.94L355.01 327.47L355.08 327.01L355.16 326.55L355.25 326.09L355.34 325.64L355.43 325.2L355.53 324.76L355.63 324.33L355.74 323.9L355.85 323.48L355.97 323.06L356.09 322.65L356.22 322.25L356.35 321.85L356.49 321.46L356.64 321.08L356.79 320.7L357.22 319.66L357.68 318.62L358.17 317.57L358.68 316.54L359.22 315.5L359.79 314.47L360.38 313.45L361.01 312.43L361.66 311.42L362.33 310.43L363.04 309.45L363.78 308.48L364.54 307.52L365.33 306.58L366.15 305.66L367 304.76L367.88 303.88L368.79 303.02L369.72 302.18L370.69 301.37L371.68 300.59L372.71 299.83L373.77 299.1L374.85 298.4L375.96 297.73L377.11 297.1L378.29 296.5L379.49 295.93L380.73 295.41L382 294.92L383.29 294.47L384.62 294.06L385.99 293.7L387.38 293.38L388.8 293.1L390.26 292.88L391.74 292.7L393.26 292.57L394.81 292.49L396.4 292.46L398.46 292.5L400.46 292.62L402.4 292.81L404.28 293.09L406.1 293.44L407.86 293.86L409.55 294.36L411.19 294.92L412.77 295.56L414.29 296.27L415.76 297.05L417.16 297.9L418.52 298.82L419.81 299.8L421.05 300.84L422.23 301.95L423.36 303.13L424.44 304.36L425.46 305.65L426.43 307.01L427.34 308.42L428.21 309.89L429.02 311.42L429.78 313L430.5 314.64L431.16 316.33L431.77 318.07L432.34 319.86L432.85 321.7L433.32 323.59L433.74 325.53L434.12 327.52L434.45 329.55L434.73 331.63L434.97 333.75L435.16 335.91L435.31 338.11L435.42 340.36L435.48 342.64L435.5 344.96L435.5 469.2L512.69 469.2L512.69 336.05L512.62 330.77L512.4 325.63L512.05 320.64L511.57 315.79L510.95 311.08L510.2 306.51L509.32 302.08L508.32 297.79L507.19 293.64L505.94 289.62L504.57 285.75L503.09 282.02L501.49 278.42L499.78 274.96L497.96 271.63L496.03 268.44L494 265.39L491.86 262.47L489.63 259.69L487.29 257.04L484.87 254.53L482.34 252.14L479.73 249.89L477.03 247.78L474.25 245.79L471.38 243.94L468.43 242.22L465.4 240.63L462.3 239.16L459.12 237.83L455.87 236.63L452.55 235.55L449.16 234.61L445.71 233.79L442.2 233.1L438.63 232.53L435 232.09L431.32 231.78L427.58 231.59L423.8 231.53L420.76 231.57L417.81 231.7ZM157.13 469.2L234.32 469.2L234.32 236.99L157.13 236.99L157.13 469.2ZM192.34 125.17L190.44 125.33L188.59 125.55L186.77 125.83L184.99 126.17L183.24 126.57L181.54 127.03L179.88 127.54L178.26 128.11L176.68 128.73L175.14 129.4L173.65 130.13L172.2 130.9L170.79 131.73L169.44 132.6L168.12 133.52L166.86 134.49L165.64 135.5L164.47 136.56L163.36 137.65L162.29 138.79L161.27 139.98L160.3 141.2L159.39 142.45L158.53 143.75L157.73 145.08L156.98 146.45L156.28 147.85L155.64 149.28L155.06 150.74L154.54 152.24L154.07 153.76L153.67 155.31L153.32 156.89L153.04 158.5L152.82 160.13L152.66 161.78L152.56 163.46L152.53 165.16L152.56 166.82L152.66 168.47L152.81 170.09L153.03 171.7L153.3 173.28L153.64 174.84L154.03 176.38L154.48 177.89L154.99 179.38L155.56 180.84L156.18 182.26L156.85 183.66L157.59 185.03L158.37 186.36L159.21 187.66L160.09 188.92L161.04 190.14L162.03 191.33L163.07 192.48L164.16 193.59L165.3 194.66L166.48 195.68L167.72 196.66L169 197.59L170.32 198.48L171.69 199.32L173.11 200.11L174.57 200.84L176.07 201.53L177.61 202.16L179.2 202.74L180.82 203.27L182.49 203.73L184.19 204.14L185.94 204.49L187.72 204.78L189.54 205.01L191.39 205.17L193.28 205.27L195.2 205.3L195.72 205.3L197.72 205.27L199.69 205.17L201.61 205.01L203.49 204.78L205.33 204.49L207.13 204.14L208.89 203.73L210.61 203.27L212.28 202.74L213.91 202.16L215.49 201.53L217.03 200.85L218.53 200.11L219.98 199.32L221.38 198.48L222.73 197.59L224.04 196.66L225.29 195.68L226.5 194.66L227.66 193.59L228.77 192.48L229.82 191.34L230.83 190.15L231.78 188.92L232.68 187.66L233.52 186.36L234.32 185.03L235.05 183.66L235.73 182.27L236.36 180.84L236.93 179.38L237.44 177.9L237.89 176.38L238.29 174.85L238.62 173.29L238.9 171.7L239.12 170.1L239.27 168.47L239.37 166.82L239.4 165.16L239.33 163.46L239.2 161.78L239.02 160.13L238.78 158.5L238.48 156.89L238.13 155.31L237.71 153.76L237.25 152.24L236.73 150.74L236.15 149.28L235.52 147.84L234.84 146.44L234.11 145.08L233.32 143.75L232.48 142.45L231.59 141.19L230.65 139.97L229.66 138.79L228.62 137.65L227.53 136.55L226.39 135.5L225.21 134.49L223.97 133.52L222.69 132.6L221.36 131.73L219.99 130.9L218.57 130.13L217.11 129.4L215.6 128.73L214.05 128.11L212.45 127.54L210.81 127.03L209.13 126.57L207.41 126.17L205.65 125.83L203.84 125.55L202 125.33L200.12 125.17L198.19 125.07L196.23 125.04L194.27 125.07L192.34 125.17Z" id="a5pA75N2r4"></path></defs><g><g><g><use xlink:href="#i3YCCFtfAM" opacity="1" fill="#ffffff" fill-opacity="1"></use><g><use xlink:href="#i3YCCFtfAM" opacity="1" fill-opacity="0" stroke="#000000" stroke-width="1" stroke-opacity="0"></use></g></g><g><use xlink:href="#a5pA75N2r4" opacity="1" fill="#ffffff" fill-opacity="1"></use><g><use xlink:href="#a5pA75N2r4" opacity="1" fill-opacity="0" stroke="#000000" stroke-width="1" stroke-opacity="0"></use></g></g></g></g></svg>