<?xml version="1.0" encoding="UTF-8" standalone="no"?>
<!DOCTYPE svg PUBLIC "-//W3C//DTD SVG 1.1//EN" "http://www.w3.org/Graphics/SVG/1.1/DTD/svg11.dtd">
<svg version="1.1" xmlns="http://www.w3.org/2000/svg" xmlns:xlink="http://www.w3.org/1999/xlink" preserveAspectRatio="xMidYMid meet" viewBox="0 0 640 640" width="640" height="640"><defs><path d="M354.22 269.9C354.06 270.15 353.86 270.42 353.71 270.66C353.75 270.66 353.91 270.66 354.22 270.66C354.22 270.2 354.22 269.95 354.22 269.9Z" id="i3YCCFtfAM"></path><path d="M346.24 1.06L359.15 2.37L371.91 4.19L384.49 6.5L396.9 9.3L409.12 12.57L421.14 16.31L432.96 20.51L444.56 25.15L455.93 30.22L467.06 35.72L477.94 41.63L488.56 47.94L498.91 54.65L508.99 61.74L518.77 69.2L528.25 77.03L537.42 85.21L546.27 93.73L554.79 102.58L562.97 111.75L570.8 121.23L578.26 131.01L585.35 141.09L592.06 151.44L598.37 162.06L604.28 172.94L609.78 184.07L614.85 195.44L619.49 207.04L623.69 218.86L627.43 230.88L630.7 243.1L633.5 255.51L635.81 268.09L637.63 280.85L638.94 293.76L639.73 306.81L640 320L639.73 333.19L638.94 346.24L637.63 359.15L635.81 371.91L633.5 384.49L630.7 396.9L627.43 409.12L623.69 421.14L619.49 432.96L614.85 444.56L609.78 455.93L604.28 467.06L598.37 477.94L592.06 488.56L585.35 498.91L578.26 508.99L570.8 518.77L562.97 528.25L554.79 537.42L546.27 546.27L537.42 554.79L528.25 562.97L518.77 570.8L508.99 578.26L498.91 585.35L488.56 592.06L477.94 598.37L467.06 604.28L455.93 609.78L444.56 614.85L432.96 619.49L421.14 623.69L409.12 627.43L396.9 630.7L384.49 633.5L371.91 635.81L359.15 637.63L346.24 638.94L333.19 639.73L320 640L306.81 639.73L293.76 638.94L280.85 637.63L268.09 635.81L255.51 633.5L243.1 630.7L230.88 627.43L218.86 623.69L207.04 619.49L195.44 614.85L184.07 609.78L172.94 604.28L162.06 598.37L151.44 592.06L141.09 585.35L131.01 578.26L121.23 570.8L111.75 562.97L102.58 554.79L93.73 546.27L85.21 537.42L77.03 528.25L69.2 518.77L61.74 508.99L54.65 498.91L47.94 488.56L41.63 477.94L35.72 467.06L30.22 455.93L25.15 444.56L20.51 432.96L16.31 421.14L12.57 409.12L9.3 396.9L6.5 384.49L4.19 371.91L2.37 359.15L1.06 346.24L0.27 333.19L0 320L0.27 306.81L1.06 293.76L2.37 280.85L4.19 268.09L6.5 255.51L9.3 243.1L12.57 230.88L16.31 218.86L20.51 207.04L25.15 195.44L30.22 184.07L35.72 172.94L41.63 162.06L47.94 151.44L54.65 141.09L61.74 131.01L69.2 121.23L77.03 111.75L85.21 102.58L93.73 93.73L102.58 85.21L111.75 77.03L121.23 69.2L131.01 61.74L141.09 54.65L151.44 47.94L162.06 41.63L172.94 35.72L184.07 30.22L195.44 25.15L207.04 20.51L218.86 16.31L230.88 12.57L243.1 9.3L255.51 6.5L268.09 4.19L280.85 2.37L293.76 1.06L306.81 0.27L320 0L333.19 0.27L346.24 1.06ZM130.16 455.61L130.18 455.61L130.21 455.62L130.24 455.62L130.27 455.63L130.3 455.63L130.33 455.64L130.36 455.64L130.39 455.65L130.43 455.65L130.46 455.66L130.49 455.66L130.53 455.67L130.56 455.68L130.6 455.68L130.63 455.69L130.67 455.7L130.71 455.71L130.75 455.71L130.79 455.72L130.82 455.73L130.86 455.74L130.9 455.74L130.95 455.75L130.99 455.76L131.03 455.77L131.07 455.78L131.12 455.79L131.16 455.8L131.21 455.81L131.25 455.82L131.3 455.83L131.34 455.84L131.39 455.85L131.44 455.86L131.49 455.87L131.54 455.88L131.59 455.89L131.64 455.91L131.69 455.92L511.33 455.92L389.41 334L345.31 378.1L344.84 378.56L344.36 379.01L343.88 379.44L343.39 379.87L342.89 380.29L342.39 380.69L341.87 381.09L341.36 381.47L340.83 381.85L340.3 382.21L339.76 382.56L339.22 382.9L338.67 383.23L338.11 383.55L337.55 383.86L336.98 384.15L336.41 384.44L335.83 384.71L335.25 384.97L334.66 385.22L334.07 385.46L333.47 385.68L332.87 385.9L332.26 386.1L331.65 386.29L331.03 386.47L330.41 386.64L329.79 386.8L329.16 386.94L328.53 387.07L327.9 387.19L327.26 387.3L326.62 387.39L325.97 387.47L325.33 387.54L324.68 387.6L324.02 387.65L323.37 387.68L322.71 387.7L322.05 387.7L321.39 387.7L320.73 387.68L320.08 387.65L319.43 387.6L318.78 387.54L318.13 387.47L317.49 387.39L316.84 387.3L316.21 387.19L315.57 387.07L314.94 386.94L314.31 386.8L313.69 386.64L313.07 386.48L312.45 386.3L311.84 386.11L311.23 385.9L310.63 385.69L310.03 385.46L309.44 385.22L308.85 384.97L308.27 384.71L307.69 384.44L307.12 384.16L306.55 383.86L305.99 383.55L305.43 383.24L304.88 382.91L304.34 382.57L303.8 382.21L303.27 381.85L302.74 381.48L302.22 381.09L301.71 380.7L301.2 380.29L300.71 379.87L300.22 379.45L299.73 379.01L299.26 378.56L298.79 378.1L253.21 332.52L130.13 455.61L130.16 455.61ZM523.37 443.88L523.37 200.05L401.45 321.96L523.37 443.88ZM119.79 199.11L119.79 199.12L119.79 199.13L119.79 199.13L119.79 199.14L119.79 199.15L119.79 199.17L119.79 199.18L119.78 199.19L119.78 199.2L119.78 199.22L119.77 199.24L119.77 199.24L119.77 199.27L119.76 199.28L119.76 199.3L119.75 199.31L119.75 199.33L119.75 199.35L119.74 199.36L119.74 199.36L119.74 441.91L241.17 320.48L119.79 199.1L119.79 199.1L119.79 199.11ZM310.83 366.05L311.29 366.49L311.76 366.91L312.24 367.3L312.74 367.67L313.26 368.02L313.79 368.34L314.33 368.64L314.88 368.92L315.44 369.18L316.01 369.41L316.59 369.63L317.18 369.82L317.77 369.99L318.37 370.13L318.98 370.25L319.59 370.35L320.2 370.43L320.82 370.49L321.43 370.52L322.05 370.53L322.67 370.52L323.29 370.49L323.9 370.43L324.51 370.35L325.12 370.25L325.73 370.13L326.33 369.99L326.92 369.82L327.51 369.63L328.09 369.42L328.66 369.18L329.22 368.92L329.77 368.65L330.31 368.34L330.84 368.02L331.36 367.67L331.86 367.31L332.34 366.92L332.82 366.5L333.27 366.07L511.84 187.5L511.83 187.5L511.82 187.5L511.81 187.5L511.8 187.5L511.79 187.5L511.78 187.5L511.77 187.5L511.75 187.49L511.73 187.49L511.71 187.49L511.7 187.49L511.69 187.48L511.68 187.48L511.67 187.48L511.65 187.48L511.64 187.47L511.62 187.47L511.61 187.47L511.59 187.46L511.56 187.45L511.54 187.45L511.52 187.44L511.49 187.44L511.48 187.43L511.45 187.42L511.44 187.42L511.43 187.42L132.19 187.42L310.83 366.05Z" id="a6S67FRDH"></path></defs><g><g><g><use xlink:href="#i3YCCFtfAM" opacity="1" fill="#ffffff" fill-opacity="1"></use><g><use xlink:href="#i3YCCFtfAM" opacity="1" fill-opacity="0" stroke="#000000" stroke-width="1" stroke-opacity="0"></use></g></g><g><use xlink:href="#a6S67FRDH" opacity="1" fill="#ffffff" fill-opacity="1"></use><g><use xlink:href="#a6S67FRDH" opacity="1" fill-opacity="0" stroke="#000000" stroke-width="1" stroke-opacity="0"></use></g></g></g></g></svg>