<?xml version="1.0" encoding="UTF-8" standalone="no"?>
<!DOCTYPE svg PUBLIC "-//W3C//DTD SVG 1.1//EN" "http://www.w3.org/Graphics/SVG/1.1/DTD/svg11.dtd">
<svg version="1.1" xmlns="http://www.w3.org/2000/svg" xmlns:xlink="http://www.w3.org/1999/xlink" preserveAspectRatio="xMidYMid meet" viewBox="0 0 640 640" width="640" height="640"><defs><path d="M346.24 1.06L359.15 2.37L371.91 4.19L384.49 6.5L396.9 9.3L409.12 12.57L421.14 16.31L432.96 20.51L444.56 25.15L455.93 30.22L467.06 35.72L477.94 41.63L488.56 47.94L498.91 54.65L508.99 61.74L518.77 69.2L528.25 77.03L537.42 85.21L546.27 93.73L554.79 102.58L562.97 111.75L570.8 121.23L578.26 131.01L585.35 141.09L592.06 151.44L598.37 162.06L604.28 172.94L609.78 184.07L614.85 195.44L619.49 207.04L623.69 218.86L627.43 230.88L630.7 243.1L633.5 255.51L635.81 268.09L637.63 280.85L638.94 293.76L639.73 306.81L640 320L639.73 333.19L638.94 346.24L637.63 359.15L635.81 371.91L633.5 384.49L630.7 396.9L627.43 409.12L623.69 421.14L619.49 432.96L614.85 444.56L609.78 455.93L604.28 467.06L598.37 477.94L592.06 488.56L585.35 498.91L578.26 508.99L570.8 518.77L562.97 528.25L554.79 537.42L546.27 546.27L537.42 554.79L528.25 562.97L518.77 570.8L508.99 578.26L498.91 585.35L488.56 592.06L477.94 598.37L467.06 604.28L455.93 609.78L444.56 614.85L432.96 619.49L421.14 623.69L409.12 627.43L396.9 630.7L384.49 633.5L371.91 635.81L359.15 637.63L346.24 638.94L333.19 639.73L320 640L306.81 639.73L293.76 638.94L280.85 637.63L268.09 635.81L255.51 633.5L243.1 630.7L230.88 627.43L218.86 623.69L207.04 619.49L195.44 614.85L184.07 609.78L172.94 604.28L162.06 598.37L151.44 592.06L141.09 585.35L131.01 578.26L121.23 570.8L111.75 562.97L102.58 554.79L93.73 546.27L85.21 537.42L77.03 528.25L69.2 518.77L61.74 508.99L54.65 498.91L47.94 488.56L41.63 477.94L35.72 467.06L30.22 455.93L25.15 444.56L20.51 432.96L16.31 421.14L12.57 409.12L9.3 396.9L6.5 384.49L4.19 371.91L2.37 359.15L1.06 346.24L0.27 333.19L0 320L0.27 306.81L1.06 293.76L2.37 280.85L4.19 268.09L6.5 255.51L9.3 243.1L12.57 230.88L16.31 218.86L20.51 207.04L25.15 195.44L30.22 184.07L35.72 172.94L41.63 162.06L47.94 151.44L54.65 141.09L61.74 131.01L69.2 121.23L77.03 111.75L85.21 102.58L93.73 93.73L102.58 85.21L111.75 77.03L121.23 69.2L131.01 61.74L141.09 54.65L151.44 47.94L162.06 41.63L172.94 35.72L184.07 30.22L195.44 25.15L207.04 20.51L218.86 16.31L230.88 12.57L243.1 9.3L255.51 6.5L268.09 4.19L280.85 2.37L293.76 1.06L306.81 0.27L320 0L333.19 0.27L346.24 1.06ZM489.71 137.17L489.18 137.23L488.64 137.33L488.11 137.45L487.58 137.61L487.04 137.8L91.48 288.59L90.9 288.84L90.34 289.12L89.82 289.44L89.32 289.78L88.86 290.15L88.42 290.55L88.02 290.97L87.64 291.42L87.29 291.89L86.98 292.37L86.69 292.88L86.43 293.4L86.2 293.93L86 294.48L85.83 295.04L85.69 295.6L85.58 296.18L85.5 296.76L85.45 297.35L85.42 297.93L85.43 298.52L85.47 299.11L85.53 299.7L85.63 300.28L85.75 300.85L85.91 301.42L86.09 301.98L86.31 302.53L86.55 303.06L86.82 303.58L87.12 304.08L87.46 304.57L87.82 305.04L88.21 305.48L88.63 305.9L89.08 306.3L89.56 306.67L90.07 307.02L90.61 307.33L91.17 307.61L192.5 349.17L230.24 468.18L230.42 468.66L230.62 469.11L230.84 469.55L231.08 469.98L231.33 470.38L231.61 470.77L231.9 471.14L232.21 471.5L232.53 471.84L232.87 472.16L233.22 472.46L233.58 472.74L233.95 473L234.34 473.25L234.74 473.48L235.14 473.68L235.56 473.87L235.98 474.04L236.41 474.19L236.84 474.32L237.28 474.42L237.73 474.51L238.18 474.58L238.63 474.62L239.09 474.65L239.54 474.65L240 474.63L240.46 474.59L240.91 474.53L241.37 474.44L241.82 474.34L242.27 474.21L242.71 474.06L243.15 473.88L243.58 473.68L244.01 473.46L244.43 473.21L244.84 472.94L245.24 472.65L245.63 472.33L303.59 418.4L413.77 491.47L414.2 491.73L414.64 491.96L415.08 492.17L415.53 492.35L415.98 492.5L416.44 492.64L416.9 492.75L417.35 492.83L417.81 492.89L418.27 492.93L418.73 492.95L419.19 492.95L419.64 492.92L420.1 492.88L420.54 492.81L420.99 492.72L421.43 492.61L421.86 492.48L422.29 492.33L422.7 492.16L423.11 491.97L423.52 491.77L423.91 491.54L424.29 491.3L424.66 491.04L425.02 490.76L425.36 490.47L425.7 490.15L426.01 489.83L426.32 489.48L426.6 489.12L426.87 488.74L427.13 488.35L427.36 487.94L427.58 487.52L427.78 487.09L427.95 486.64L428.11 486.18L428.25 485.7L428.36 485.21L500.01 148.73L500.1 148.17L500.17 147.62L500.2 147.07L500.2 146.53L500.18 146L500.12 145.47L500.04 144.96L499.93 144.45L499.79 143.96L499.62 143.47L499.43 143L499.22 142.54L498.99 142.1L498.73 141.67L498.45 141.25L498.15 140.85L497.83 140.47L497.49 140.1L497.14 139.75L496.77 139.42L496.38 139.11L495.97 138.82L495.55 138.55L495.12 138.3L494.67 138.07L494.22 137.86L493.75 137.68L493.27 137.53L492.78 137.39L492.29 137.29L491.78 137.21L491.27 137.16L490.75 137.13L490.23 137.14L489.71 137.17Z" id="c24jGwiR"></path><path d="M248.85 371.71L427.55 197.03L211.82 338.7L242.41 432.89L248.85 371.71Z" id="b1eYX9uXz2"></path></defs><g><g><g><use xlink:href="#c24jGwiR" opacity="1" fill="#ffffff" fill-opacity="1"></use><g><use xlink:href="#c24jGwiR" opacity="1" fill-opacity="0" stroke="#000000" stroke-width="1" stroke-opacity="0"></use></g></g><g><use xlink:href="#b1eYX9uXz2" opacity="1" fill="#ffffff" fill-opacity="1"></use><g><use xlink:href="#b1eYX9uXz2" opacity="1" fill-opacity="0" stroke="#000000" stroke-width="1" stroke-opacity="0"></use></g></g></g></g></svg>